<svg width="213" height="40" viewBox="0 0 213 40" fill="none" xmlns="http://www.w3.org/2000/svg">
<path d="M0.962433 18.2427L13.5283 11.7148C13.7187 11.6159 13.9452 11.6159 14.1356 11.7147L22.1737 15.8903C22.364 15.9892 22.5906 15.9892 22.781 15.8903L26.5392 13.9379C27.0126 13.692 27.0126 13.0148 26.5392 12.7689L14.133 6.32416C13.9441 6.22604 13.7194 6.22524 13.5298 6.32201L0.359211 13.0451C0.138755 13.1577 -5.0252e-06 13.3843 1.36512e-10 13.6318L9.79942e-05 17.6582C0.000108045 18.1523 0.523959 18.4705 0.962433 18.2427Z" fill="white"/>
<path d="M14.1363 18.362L26.7022 24.89C27.1407 25.1178 27.6645 24.7996 27.6646 24.3055L27.6647 20.2791C27.6647 20.0316 27.5259 19.8049 27.3054 19.6924L14.1348 12.9693C13.9452 12.8725 13.7206 12.8733 13.5317 12.9714L1.12548 19.4162C0.652095 19.6621 0.652093 20.3393 1.12547 20.5852L4.88368 22.5376C5.07404 22.6364 5.30062 22.6364 5.49097 22.5376L13.5291 18.362C13.7194 18.2631 13.946 18.2631 14.1363 18.362Z" fill="white"/>
<path d="M14.1361 33.6758L26.5393 27.2325C27.0127 26.9866 27.0127 26.3094 26.5393 26.0634L14.1359 19.6201C13.9455 19.5212 13.7189 19.5212 13.5286 19.6201L1.12545 26.0634C0.652075 26.3094 0.652077 26.9866 1.12545 27.2325L13.5288 33.6758C13.7191 33.7747 13.9457 33.7747 14.1361 33.6758Z" fill="white"/>
<path d="M208.092 31.3992V0H212.737V31.3992H208.092Z" fill="white"/>
<path d="M198.053 31.3992V0H202.698V31.3992H198.053Z" fill="white"/>
<path d="M192.4 5.80401C191.826 6.37751 191.138 6.66426 190.335 6.66426C189.532 6.66426 188.83 6.37751 188.227 5.80401C187.654 5.20183 187.367 4.49929 187.367 3.69639C187.367 2.89348 187.654 2.20528 188.227 1.63178C188.801 1.0296 189.503 0.728516 190.335 0.728516C191.167 0.728516 191.869 1.0296 192.443 1.63178C193.016 2.20528 193.303 2.89348 193.303 3.69639C193.303 4.49929 193.002 5.20183 192.4 5.80401ZM188.012 31.3965V9.89021H192.658V31.3965H188.012Z" fill="white"/>
<path d="M184.889 31.3969H179.34L170.522 21.461V31.3969H165.877V1.28809H170.522V19.3964L178.867 9.89061H184.544L175.082 20.4287L184.889 31.3969Z" fill="white"/>
<path d="M150.476 15.8269C150.476 16.5438 150.864 17.1173 151.638 17.5474C152.441 17.9489 153.401 18.3073 154.52 18.6228C155.667 18.9095 156.814 19.2536 157.961 19.6551C159.108 20.0565 160.068 20.7447 160.842 21.7197C161.645 22.6659 162.047 23.8703 162.047 25.3327C162.047 27.3973 161.244 29.0175 159.638 30.1931C158.061 31.3688 156.068 31.9567 153.659 31.9567C151.537 31.9567 149.717 31.5122 148.197 30.6233C146.677 29.7344 145.573 28.5013 144.885 26.9242L148.885 24.6015C149.63 26.6661 151.222 27.6984 153.659 27.6984C156.097 27.6984 157.315 26.8955 157.315 25.2897C157.315 24.6015 156.914 24.0423 156.111 23.6122C155.337 23.1821 154.376 22.8237 153.229 22.5369C152.111 22.2215 150.978 21.863 149.831 21.4616C148.684 21.0601 147.709 20.4006 146.906 19.483C146.132 18.5367 145.745 17.3467 145.745 15.913C145.745 13.9344 146.491 12.3429 147.982 11.1386C149.501 9.93421 151.38 9.33203 153.616 9.33203C155.394 9.33203 156.971 9.73348 158.348 10.5364C159.753 11.3106 160.828 12.4003 161.574 13.8053L157.66 15.999C156.914 14.3645 155.566 13.5473 153.616 13.5473C152.727 13.5473 151.982 13.748 151.38 14.1494C150.777 14.5222 150.476 15.0814 150.476 15.8269Z" fill="white"/>
<path d="M137.003 13.507C138.178 10.8402 140.386 9.50684 143.627 9.50684V14.5393C141.849 14.4246 140.3 14.8547 138.981 15.8297C137.662 16.776 137.003 18.3531 137.003 20.5611V31.4003H132.357V9.89395H137.003V13.507Z" fill="white"/>
<path d="M110.978 22.6229C111.322 24.2574 112.11 25.5191 113.343 26.408C114.576 27.2683 116.082 27.6984 117.86 27.6984C120.326 27.6984 122.175 26.8095 123.408 25.0316L127.236 27.2683C125.114 30.3939 121.975 31.9567 117.817 31.9567C114.318 31.9567 111.494 30.8957 109.343 28.7737C107.193 26.6231 106.117 23.9133 106.117 20.6444C106.117 17.4327 107.178 14.7516 109.3 12.601C111.422 10.4217 114.146 9.33203 117.473 9.33203C120.627 9.33203 123.208 10.436 125.215 12.644C127.251 14.852 128.269 17.5331 128.269 20.6874C128.269 21.1748 128.211 21.82 128.097 22.6229H110.978ZM110.935 18.8378H123.58C123.265 17.0886 122.534 15.7696 121.387 14.8807C120.268 13.9917 118.949 13.5473 117.43 13.5473C115.709 13.5473 114.275 14.0204 113.128 14.9667C111.981 15.913 111.25 17.2033 110.935 18.8378Z" fill="white"/>
<path d="M92.403 9.33203C95.3566 9.33203 97.88 10.436 99.9733 12.644C102.067 14.8233 103.113 17.4901 103.113 20.6444C103.113 23.8273 102.067 26.5084 99.9733 28.6877C97.88 30.867 95.3566 31.9567 92.403 31.9567C89.1341 31.9567 86.625 30.7523 84.8758 28.3436V40H80.2305V9.8912H84.8758V12.9881C86.625 10.5507 89.1341 9.33203 92.403 9.33203ZM86.8114 25.5908C88.1018 26.8812 89.7219 27.5264 91.6718 27.5264C93.6217 27.5264 95.2419 26.8812 96.5323 25.5908C97.8226 24.2717 98.4678 22.6229 98.4678 20.6444C98.4678 18.6658 97.8226 17.0313 96.5323 15.7409C95.2419 14.4219 93.6217 13.7623 91.6718 13.7623C89.7219 13.7623 88.1018 14.4219 86.8114 15.7409C85.521 17.0313 84.8758 18.6658 84.8758 20.6444C84.8758 22.6229 85.521 24.2717 86.8114 25.5908Z" fill="white"/>
<path d="M70.1519 9.89258H74.7973V31.3989H70.1519V28.6461C68.7469 30.8541 66.5245 31.9581 63.485 31.9581C61.0189 31.9581 59.026 31.1695 57.5062 29.5924C55.9865 28.0152 55.2266 25.8503 55.2266 23.0975V9.89258H59.8719V22.6243C59.8719 24.2301 60.3021 25.4631 61.1623 26.3234C62.0226 27.1836 63.1982 27.6138 64.6893 27.6138C66.3238 27.6138 67.6429 27.112 68.6465 26.1083C69.6501 25.076 70.1519 23.5132 70.1519 21.42V9.89258Z" fill="white"/>
<path d="M40.2557 15.8268C40.2557 16.5437 40.6428 17.1172 41.417 17.5473C42.2199 17.9488 43.1806 18.3072 44.2989 18.6227C45.4459 18.9094 46.5929 19.2535 47.7399 19.655C48.8869 20.0564 49.8475 20.7446 50.6217 21.7196C51.4246 22.6658 51.8261 23.8702 51.8261 25.3326C51.8261 27.3972 51.0232 29.0174 49.4174 30.1931C47.8403 31.3687 45.8473 31.9566 43.4386 31.9566C41.3167 31.9566 39.4958 31.5121 37.976 30.6232C36.4563 29.7343 35.3523 28.5012 34.6641 26.9241L38.6642 24.6014C39.4098 26.666 41.0013 27.6983 43.4386 27.6983C45.876 27.6983 47.0947 26.8954 47.0947 25.2896C47.0947 24.6014 46.6933 24.0422 45.8904 23.6121C45.1161 23.182 44.1555 22.8236 43.0085 22.5368C41.8902 22.2214 40.7575 21.8629 39.6105 21.4615C38.4635 21.06 37.4886 20.4005 36.6857 19.4829C35.9114 18.5366 35.5243 17.3466 35.5243 15.9129C35.5243 13.9343 36.2699 12.3428 37.761 11.1385C39.2808 9.93411 41.159 9.33193 43.3956 9.33193C45.1735 9.33193 46.7506 9.73339 48.127 10.5363C49.5321 11.3105 50.6074 12.4002 51.353 13.8052L47.4388 15.9989C46.6933 14.3644 45.3455 13.5472 43.3956 13.5472C42.5067 13.5472 41.7611 13.7479 41.159 14.1493C40.5568 14.5221 40.2557 15.0813 40.2557 15.8268Z" fill="white"/>
</svg>
