<svg width="296" height="94" viewBox="0 0 296 94" fill="none" xmlns="http://www.w3.org/2000/svg">
<rect width="296" height="94" rx="32" fill="#012301"/>
<path d="M116.384 55L110.768 38.2H113.24L118.4 53.704H117.152L122.504 38.2H124.712L129.944 53.704H128.744L133.976 38.2H136.256L130.64 55H128.12L123.224 40.624H123.872L118.952 55H116.384ZM145.791 55V52.312L145.671 51.808V47.224C145.671 46.248 145.383 45.496 144.807 44.968C144.247 44.424 143.399 44.152 142.263 44.152C141.511 44.152 140.775 44.28 140.055 44.536C139.335 44.776 138.727 45.104 138.231 45.52L137.271 43.792C137.927 43.264 138.711 42.864 139.623 42.592C140.551 42.304 141.519 42.16 142.527 42.16C144.271 42.16 145.615 42.584 146.559 43.432C147.503 44.28 147.975 45.576 147.975 47.32V55H145.791ZM141.615 55.144C140.671 55.144 139.839 54.984 139.119 54.664C138.415 54.344 137.871 53.904 137.487 53.344C137.103 52.768 136.911 52.12 136.911 51.4C136.911 50.712 137.071 50.088 137.391 49.528C137.727 48.968 138.263 48.52 138.999 48.184C139.751 47.848 140.759 47.68 142.023 47.68H146.055V49.336H142.119C140.967 49.336 140.191 49.528 139.791 49.912C139.391 50.296 139.191 50.76 139.191 51.304C139.191 51.928 139.439 52.432 139.935 52.816C140.431 53.184 141.119 53.368 141.999 53.368C142.863 53.368 143.615 53.176 144.255 52.792C144.911 52.408 145.383 51.848 145.671 51.112L146.127 52.696C145.823 53.448 145.287 54.048 144.519 54.496C143.751 54.928 142.783 55.144 141.615 55.144ZM156.607 55.144C155.327 55.144 154.335 54.8 153.631 54.112C152.927 53.424 152.575 52.44 152.575 51.16V39.496H154.879V51.064C154.879 51.752 155.047 52.28 155.383 52.648C155.735 53.016 156.231 53.2 156.871 53.2C157.591 53.2 158.191 53 158.671 52.6L159.391 54.256C159.039 54.56 158.615 54.784 158.119 54.928C157.639 55.072 157.135 55.144 156.607 55.144ZM150.415 44.176V42.28H158.527V44.176H150.415ZM167.298 55.144C166.002 55.144 164.842 54.864 163.818 54.304C162.81 53.744 162.018 52.976 161.442 52C160.866 51.024 160.578 49.904 160.578 48.64C160.578 47.376 160.866 46.256 161.442 45.28C162.018 44.304 162.81 43.544 163.818 43C164.842 42.44 166.002 42.16 167.298 42.16C168.45 42.16 169.474 42.392 170.37 42.856C171.282 43.304 171.986 43.976 172.482 44.872L170.73 46C170.314 45.376 169.802 44.92 169.194 44.632C168.602 44.328 167.962 44.176 167.274 44.176C166.442 44.176 165.698 44.36 165.042 44.728C164.386 45.096 163.866 45.616 163.482 46.288C163.098 46.944 162.906 47.728 162.906 48.64C162.906 49.552 163.098 50.344 163.482 51.016C163.866 51.688 164.386 52.208 165.042 52.576C165.698 52.944 166.442 53.128 167.274 53.128C167.962 53.128 168.602 52.984 169.194 52.696C169.802 52.392 170.314 51.928 170.73 51.304L172.482 52.408C171.986 53.288 171.282 53.968 170.37 54.448C169.474 54.912 168.45 55.144 167.298 55.144ZM182.093 42.16C183.133 42.16 184.045 42.36 184.829 42.76C185.629 43.16 186.253 43.768 186.701 44.584C187.149 45.4 187.373 46.432 187.373 47.68V55H185.069V47.944C185.069 46.712 184.765 45.784 184.157 45.16C183.565 44.536 182.725 44.224 181.637 44.224C180.821 44.224 180.109 44.384 179.501 44.704C178.893 45.024 178.421 45.496 178.085 46.12C177.765 46.744 177.605 47.52 177.605 48.448V55H175.301V37.192H177.605V45.712L177.149 44.8C177.565 43.968 178.205 43.32 179.069 42.856C179.933 42.392 180.941 42.16 182.093 42.16ZM198.418 55V38.2H205.498C207.29 38.2 208.866 38.552 210.226 39.256C211.602 39.96 212.666 40.944 213.418 42.208C214.186 43.472 214.57 44.936 214.57 46.6C214.57 48.264 214.186 49.728 213.418 50.992C212.666 52.256 211.602 53.24 210.226 53.944C208.866 54.648 207.29 55 205.498 55H198.418ZM200.818 52.912H205.354C206.746 52.912 207.946 52.648 208.954 52.12C209.978 51.592 210.77 50.856 211.33 49.912C211.89 48.952 212.17 47.848 212.17 46.6C212.17 45.336 211.89 44.232 211.33 43.288C210.77 42.344 209.978 41.608 208.954 41.08C207.946 40.552 206.746 40.288 205.354 40.288H200.818V52.912ZM223.575 55.144C222.215 55.144 221.015 54.864 219.975 54.304C218.951 53.744 218.151 52.976 217.575 52C217.015 51.024 216.735 49.904 216.735 48.64C216.735 47.376 217.007 46.256 217.551 45.28C218.111 44.304 218.871 43.544 219.831 43C220.807 42.44 221.903 42.16 223.119 42.16C224.351 42.16 225.439 42.432 226.383 42.976C227.327 43.52 228.063 44.288 228.591 45.28C229.135 46.256 229.407 47.4 229.407 48.712C229.407 48.808 229.399 48.92 229.383 49.048C229.383 49.176 229.375 49.296 229.359 49.408H218.535V47.752H228.159L227.223 48.328C227.239 47.512 227.071 46.784 226.719 46.144C226.367 45.504 225.879 45.008 225.255 44.656C224.647 44.288 223.935 44.104 223.119 44.104C222.319 44.104 221.607 44.288 220.983 44.656C220.359 45.008 219.871 45.512 219.519 46.168C219.167 46.808 218.991 47.544 218.991 48.376V48.76C218.991 49.608 219.183 50.368 219.567 51.04C219.967 51.696 220.519 52.208 221.223 52.576C221.927 52.944 222.735 53.128 223.647 53.128C224.399 53.128 225.079 53 225.687 52.744C226.311 52.488 226.855 52.104 227.319 51.592L228.591 53.08C228.015 53.752 227.295 54.264 226.431 54.616C225.583 54.968 224.631 55.144 223.575 55.144ZM248.518 42.16C249.542 42.16 250.446 42.36 251.23 42.76C252.014 43.16 252.622 43.768 253.054 44.584C253.502 45.4 253.726 46.432 253.726 47.68V55H251.422V47.944C251.422 46.712 251.134 45.784 250.558 45.16C249.982 44.536 249.174 44.224 248.134 44.224C247.366 44.224 246.694 44.384 246.118 44.704C245.542 45.024 245.094 45.496 244.774 46.12C244.47 46.744 244.318 47.52 244.318 48.448V55H242.014V47.944C242.014 46.712 241.726 45.784 241.15 45.16C240.59 44.536 239.782 44.224 238.726 44.224C237.974 44.224 237.31 44.384 236.734 44.704C236.158 45.024 235.71 45.496 235.39 46.12C235.07 46.744 234.91 47.52 234.91 48.448V55H232.606V42.28H234.814V45.664L234.454 44.8C234.854 43.968 235.47 43.32 236.302 42.856C237.134 42.392 238.102 42.16 239.206 42.16C240.422 42.16 241.47 42.464 242.35 43.072C243.23 43.664 243.806 44.568 244.078 45.784L243.142 45.4C243.526 44.424 244.198 43.64 245.158 43.048C246.118 42.456 247.238 42.16 248.518 42.16ZM263.413 55.144C262.133 55.144 260.997 54.864 260.005 54.304C259.013 53.744 258.229 52.976 257.653 52C257.077 51.008 256.789 49.888 256.789 48.64C256.789 47.376 257.077 46.256 257.653 45.28C258.229 44.304 259.013 43.544 260.005 43C260.997 42.44 262.133 42.16 263.413 42.16C264.677 42.16 265.805 42.44 266.797 43C267.805 43.544 268.589 44.304 269.149 45.28C269.725 46.24 270.013 47.36 270.013 48.64C270.013 49.904 269.725 51.024 269.149 52C268.589 52.976 267.805 53.744 266.797 54.304C265.805 54.864 264.677 55.144 263.413 55.144ZM263.413 53.128C264.229 53.128 264.957 52.944 265.597 52.576C266.253 52.208 266.765 51.688 267.133 51.016C267.501 50.328 267.685 49.536 267.685 48.64C267.685 47.728 267.501 46.944 267.133 46.288C266.765 45.616 266.253 45.096 265.597 44.728C264.957 44.36 264.229 44.176 263.413 44.176C262.597 44.176 261.869 44.36 261.229 44.728C260.589 45.096 260.077 45.616 259.693 46.288C259.309 46.944 259.117 47.728 259.117 48.64C259.117 49.536 259.309 50.328 259.693 51.016C260.077 51.688 260.589 52.208 261.229 52.576C261.869 52.944 262.597 53.128 263.413 53.128Z" fill="white"/>
<circle cx="55" cy="47" r="31" fill="#00B48D"/>
<path d="M48 38L62 47L48 56V38Z" fill="#D9D9D9"/>
</svg>
